<svg width="58" height="58" viewBox="0 0 58 58" fill="none" xmlns="http://www.w3.org/2000/svg">
<mask id="mask0_51_288" style="mask-type:luminance" maskUnits="userSpaceOnUse" x="0" y="0" width="58" height="58">
<path d="M0 0H58V58H0V0Z" fill="white"/>
</mask>
<g mask="url(#mask0_51_288)">
<path d="M29 58C28.5259 58 28.0511 57.9881 27.5777 57.965C27.1036 57.9413 26.6302 57.9063 26.1575 57.8601C25.6855 57.8133 25.2149 57.7553 24.745 57.686C24.2758 57.6161 23.8079 57.535 23.3429 57.4427C22.8772 57.3497 22.4143 57.2462 21.9542 57.1308C21.4934 57.0154 21.036 56.8889 20.5822 56.7511C20.1277 56.6134 19.6774 56.4644 19.2305 56.3043C18.7837 56.1448 18.3411 55.9735 17.9026 55.7924C17.4642 55.6106 17.0299 55.4183 16.6013 55.2155C16.1719 55.0127 15.7482 54.7995 15.33 54.5757C14.9112 54.3519 14.4986 54.1177 14.0916 53.8736C13.684 53.6296 13.2833 53.3757 12.8889 53.1121C12.4945 52.8485 12.1064 52.5758 11.7253 52.2926C11.3435 52.0101 10.9701 51.7178 10.603 51.4171C10.2359 51.1157 9.87645 50.8059 9.52541 50.4871C9.17368 50.1682 8.82964 49.8417 8.494 49.506C8.15835 49.1704 7.83179 48.8263 7.51292 48.4746C7.19406 48.1236 6.88428 47.7641 6.5829 47.397C6.28221 47.0299 5.98992 46.6565 5.70742 46.2747C5.42491 45.8936 5.1515 45.5062 4.88788 45.1111C4.62425 44.7167 4.37042 44.316 4.12637 43.9084C3.88233 43.5014 3.64808 43.0888 3.42431 42.67C3.20054 42.2518 2.98727 41.8281 2.78448 41.3987C2.58169 40.9701 2.3894 40.5358 2.20759 40.0974C2.02648 39.6589 1.85516 39.2163 1.69572 38.7695C1.53559 38.3226 1.38665 37.8723 1.24889 37.4178C1.11114 36.964 0.984568 36.5066 0.869189 36.0458C0.75381 35.5857 0.650318 35.1228 0.557316 34.6571C0.465013 34.1921 0.383898 33.7242 0.313971 33.255C0.244743 32.7851 0.186704 32.3145 0.139853 31.8425C0.0937017 31.3698 0.0587385 30.8964 0.0349633 30.423C0.0118876 29.9489 0 29.4741 0 29C0 28.5252 0.0118876 28.0511 0.0349633 27.577C0.0587385 27.1029 0.0937017 26.6295 0.139853 26.1575C0.186704 25.6848 0.244743 25.2142 0.313971 24.7443C0.383898 24.2751 0.465013 23.8072 0.557316 23.3422C0.650318 22.8765 0.75381 22.4136 0.869189 21.9535C0.984568 21.4927 1.11114 21.0353 1.24889 20.5815C1.38665 20.127 1.53559 19.6767 1.69572 19.2298C1.85516 18.783 2.02648 18.3404 2.20759 17.9019C2.3894 17.4635 2.58169 17.0299 2.78448 16.6006C2.98727 16.1712 3.20054 15.7475 3.42431 15.3293C3.64808 14.9105 3.88233 14.4979 4.12637 14.0909C4.37042 13.684 4.62425 13.2826 4.88788 12.8882C5.1515 12.4938 5.42491 12.1057 5.70742 11.7246C5.98992 11.3435 6.28221 10.9694 6.5829 10.6023C6.88428 10.2352 7.19406 9.87645 7.51292 9.52472C7.83179 9.17298 8.15835 8.82895 8.494 8.4933C8.82964 8.15835 9.17368 7.83109 9.52541 7.51223C9.87645 7.19336 10.2359 6.88358 10.603 6.5822C10.9701 6.28152 11.3435 5.98922 11.7253 5.70672C12.1064 5.42421 12.4945 5.1508 12.8889 4.88718C13.2833 4.62355 13.684 4.36972 14.0916 4.12568C14.4986 3.88163 14.9112 3.64738 15.33 3.42431C15.7482 3.20054 16.1719 2.98727 16.6013 2.78378C17.0299 2.58099 17.4642 2.3887 17.9026 2.20689C18.3411 2.02578 18.7837 1.85516 19.2305 1.69502C19.6774 1.53489 20.1277 1.38595 20.5822 1.24819C21.036 1.11044 21.4934 0.983869 21.9542 0.86849C22.4143 0.75381 22.8772 0.649619 23.3429 0.556616C23.8079 0.464313 24.2758 0.383198 24.745 0.313272C25.2149 0.244044 25.6855 0.186005 26.1575 0.139154C26.6302 0.0930026 27.1036 0.0580391 27.5777 0.0349633C28.0511 0.0111884 28.5259 0 29 0C29.4748 0 29.9489 0.0111884 30.423 0.0349633C30.8971 0.0580391 31.3705 0.0930026 31.8425 0.139154C32.3152 0.186005 32.7858 0.244044 33.2557 0.313272C33.7249 0.383198 34.1928 0.464313 34.6578 0.556616C35.1235 0.649619 35.5864 0.75381 36.0465 0.86849C36.5073 0.983869 36.9646 1.11044 37.4185 1.24819C37.873 1.38595 38.3233 1.53489 38.7702 1.69502C39.217 1.85516 39.6596 2.02578 40.0981 2.20689C40.5365 2.3887 40.9701 2.58099 41.3994 2.78378C41.8288 2.98727 42.2525 3.20054 42.6707 3.42431C43.0895 3.64738 43.5021 3.88163 43.9091 4.12568C44.316 4.36972 44.7174 4.62355 45.1118 4.88718C45.5062 5.1508 45.8943 5.42421 46.2754 5.70672C46.6565 5.98922 47.0306 6.28152 47.3977 6.5822C47.7648 6.88358 48.1236 7.19336 48.4753 7.51223C48.827 7.83109 49.1711 8.15835 49.5067 8.4933C49.8417 8.82895 50.1689 9.17298 50.4878 9.52472C50.8066 9.87645 51.1164 10.2352 51.4178 10.6023C51.7185 10.9694 52.0108 11.3435 52.2933 11.7246C52.5758 12.1057 52.8492 12.4938 53.1128 12.8882C53.3764 13.2826 53.6303 13.684 53.8743 14.0909C54.1184 14.4979 54.3526 14.9105 54.5757 15.3293C54.7995 15.7475 55.0134 16.1712 55.2162 16.6006C55.419 17.0299 55.6113 17.4635 55.7931 17.9019C55.9742 18.3404 56.1455 18.783 56.305 19.2298C56.4651 19.6767 56.6141 20.127 56.7518 20.5815C56.8896 21.0353 57.0161 21.4927 57.1315 21.9535C57.2462 22.4136 57.3504 22.8765 57.4434 23.3422C57.5357 23.8072 57.6168 24.2751 57.6867 24.7443C57.756 25.2142 57.814 25.6848 57.8608 26.1575C57.907 26.6295 57.942 27.1029 57.965 27.577C57.9888 28.0511 58 28.5252 58 29C58 29.4741 57.9888 29.9489 57.965 30.423C57.942 30.8964 57.907 31.3698 57.8608 31.8425C57.814 32.3145 57.756 32.7851 57.6867 33.255C57.6168 33.7242 57.5357 34.1921 57.4434 34.6571C57.3504 35.1228 57.2462 35.5857 57.1315 36.0458C57.0161 36.5066 56.8896 36.964 56.7518 37.4178C56.6141 37.8723 56.4651 38.3226 56.305 38.7695C56.1455 39.2163 55.9742 39.6589 55.7931 40.0974C55.6113 40.5358 55.419 40.9701 55.2162 41.3987C55.0134 41.8281 54.7995 42.2518 54.5757 42.67C54.3526 43.0888 54.1184 43.5014 53.8743 43.9084C53.6303 44.316 53.3764 44.7167 53.1128 45.1111C52.8492 45.5062 52.5758 45.8936 52.2933 46.2747C52.0108 46.6565 51.7185 47.0299 51.4178 47.397C51.1164 47.7641 50.8066 48.1236 50.4878 48.4746C50.1689 48.8263 49.8417 49.1704 49.5067 49.506C49.1711 49.8417 48.827 50.1682 48.4753 50.4871C48.1236 50.8059 47.7648 51.1157 47.3977 51.4171C47.0306 51.7178 46.6565 52.0101 46.2754 52.2926C45.8943 52.5758 45.5062 52.8485 45.1118 53.1121C44.7174 53.3757 44.316 53.6296 43.9091 53.8736C43.5021 54.1177 43.0895 54.3519 42.6707 54.5757C42.2525 54.7995 41.8288 55.0127 41.3994 55.2155C40.9701 55.4183 40.5365 55.6106 40.0981 55.7924C39.6596 55.9735 39.217 56.1448 38.7702 56.3043C38.3233 56.4644 37.873 56.6134 37.4185 56.7511C36.9646 56.8889 36.5073 57.0154 36.0465 57.1308C35.5864 57.2462 35.1235 57.3497 34.6578 57.4427C34.1928 57.535 33.7249 57.6161 33.2557 57.686C32.7858 57.7553 32.3152 57.8133 31.8425 57.8601C31.3705 57.9063 30.8971 57.9413 30.423 57.965C29.9489 57.9881 29.4748 58 29 58ZM29 3.625C28.5853 3.625 28.17 3.63479 27.7553 3.65507C27.3406 3.67535 26.9267 3.70611 26.5134 3.74667C26.1001 3.78793 25.6876 3.83828 25.2771 3.89911C24.8659 3.95995 24.4569 4.03127 24.0499 4.11239C23.6429 4.1935 23.2373 4.28441 22.8346 4.3851C22.4318 4.4858 22.0318 4.59698 21.6346 4.71726C21.2367 4.83823 20.8431 4.96829 20.4515 5.10815C20.0606 5.248 19.6732 5.39764 19.29 5.55638C18.9061 5.71511 18.5264 5.88363 18.1509 6.06125C17.7754 6.23886 17.4048 6.42486 17.0383 6.62066C16.6726 6.81645 16.3111 7.02134 15.9552 7.23462C15.5985 7.44859 15.2482 7.67026 14.9028 7.90102C14.5573 8.13178 14.2182 8.37092 13.8846 8.61847C13.5511 8.86601 13.2238 9.12124 12.9029 9.38486C12.5819 9.64779 12.2672 9.9191 11.9596 10.1981C11.6519 10.4771 11.3512 10.7631 11.0575 11.0568C10.7638 11.3505 10.4778 11.6512 10.1988 11.9589C9.9198 12.2665 9.64849 12.5812 9.38486 12.9022C9.12194 13.2231 8.86601 13.5504 8.61916 13.8839C8.37162 14.2175 8.13247 14.5566 7.90172 14.9021C7.67096 15.2475 7.44929 15.5978 7.23532 15.9545C7.02204 16.3104 6.81715 16.6719 6.62136 17.0383C6.42556 17.4041 6.23886 17.7754 6.06125 18.1502C5.88433 18.5257 5.71581 18.9054 5.55707 19.2893C5.39764 19.6725 5.2487 20.0599 5.10884 20.4515C4.96899 20.8424 4.83823 21.236 4.71795 21.6339C4.59768 22.0311 4.4865 22.4311 4.3858 22.8339C4.28511 23.2366 4.1942 23.6422 4.11309 24.0492C4.03197 24.4569 3.96065 24.8659 3.89981 25.2764C3.83898 25.6869 3.78793 26.0994 3.74737 26.5127C3.70681 26.926 3.67605 27.3399 3.65577 27.7546C3.63549 28.1693 3.625 28.5846 3.625 29C3.625 29.4147 3.63549 29.83 3.65577 30.2447C3.67605 30.6594 3.70681 31.0733 3.74737 31.4866C3.78793 31.8999 3.83898 32.3124 3.89981 32.7229C3.96065 33.1341 4.03197 33.5431 4.11309 33.9501C4.1942 34.3571 4.28511 34.7627 4.3858 35.1654C4.4865 35.5682 4.59768 35.9682 4.71795 36.3654C4.83823 36.7633 4.96899 37.1569 5.10884 37.5485C5.2487 37.9394 5.39764 38.3268 5.55707 38.71C5.71581 39.0939 5.88433 39.4736 6.06125 39.8491C6.23886 40.2246 6.42556 40.5952 6.62136 40.9617C6.81715 41.3274 7.02204 41.6889 7.23532 42.0448C7.44929 42.4015 7.67096 42.7518 7.90172 43.0972C8.13247 43.4427 8.37162 43.7818 8.61916 44.1154C8.86601 44.4489 9.12194 44.7762 9.38486 45.0971C9.64849 45.4188 9.9198 45.7328 10.1988 46.0404C10.4778 46.3481 10.7638 46.6488 11.0575 46.9425C11.3512 47.2362 11.6519 47.5222 11.9596 47.8012C12.2672 48.0802 12.5819 48.3515 12.9029 48.6151C13.2238 48.8781 13.5511 49.134 13.8846 49.3808C14.2182 49.6284 14.5573 49.8675 14.9028 50.0983C15.2482 50.329 15.5985 50.5514 15.9552 50.7647C16.3111 50.978 16.6726 51.1828 17.0383 51.3786C17.4048 51.5744 17.7754 51.7611 18.1509 51.9388C18.5264 52.1157 18.9061 52.2842 19.29 52.4429C19.6732 52.6024 20.0606 52.7513 20.4515 52.8912C20.8431 53.031 21.2367 53.1618 21.6346 53.282C22.0318 53.4023 22.4318 53.5135 22.8346 53.6142C23.2373 53.7149 23.6429 53.8058 24.0499 53.8869C24.4569 53.968 24.8659 54.0394 25.2771 54.1002C25.6876 54.161 26.1001 54.2121 26.5134 54.2526C26.9267 54.2932 27.3406 54.324 27.7553 54.3442C28.17 54.3645 28.5853 54.375 29 54.375C29.4154 54.375 29.8307 54.3645 30.2454 54.3442C30.6601 54.324 31.074 54.2932 31.4873 54.2526C31.9006 54.2121 32.3131 54.161 32.7236 54.1002C33.1341 54.0394 33.5431 53.968 33.9508 53.8869C34.3578 53.8058 34.7634 53.7149 35.1661 53.6142C35.5689 53.5135 35.9689 53.4023 36.3661 53.282C36.764 53.1618 37.1576 53.031 37.5492 52.8912C37.9401 52.7513 38.3275 52.6024 38.7107 52.4429C39.0946 52.2842 39.4743 52.1157 39.8498 51.9388C40.2246 51.7611 40.5959 51.5744 40.9617 51.3786C41.3281 51.1828 41.6896 50.978 42.0455 50.7647C42.4021 50.5514 42.7525 50.329 43.0979 50.0983C43.4434 49.8675 43.7825 49.6284 44.1161 49.3808C44.4496 49.134 44.7769 48.8781 45.0978 48.6151C45.4188 48.3515 45.7335 48.0802 46.0411 47.8012C46.3488 47.5222 46.6495 47.2362 46.9432 46.9425C47.2369 46.6488 47.5229 46.3481 47.8019 46.0404C48.0809 45.7328 48.3522 45.4188 48.6151 45.0971C48.8788 44.7762 49.134 44.4489 49.3815 44.1154C49.6291 43.7818 49.8682 43.4427 50.099 43.0972C50.3297 42.7518 50.5514 42.4015 50.7654 42.0448C50.9787 41.6889 51.1835 41.3274 51.3793 40.9617C51.5751 40.5952 51.7611 40.2246 51.9388 39.8491C52.1164 39.4736 52.2849 39.0939 52.4436 38.71C52.6024 38.3268 52.752 37.9394 52.8919 37.5485C53.0317 37.1569 53.1625 36.7633 53.2827 36.3654C53.403 35.9682 53.5142 35.5682 53.6149 35.1654C53.7156 34.7627 53.8065 34.3571 53.8876 33.9501C53.9687 33.5431 54.0401 33.1341 54.1009 32.7229C54.1617 32.3124 54.2121 31.8999 54.2533 31.4866C54.2939 31.0733 54.3247 30.6594 54.3449 30.2447C54.3652 29.83 54.375 29.4147 54.375 29C54.375 28.5846 54.3652 28.1693 54.3449 27.7546C54.3247 27.3399 54.2939 26.926 54.2533 26.5127C54.2128 26.0994 54.1617 25.6869 54.1009 25.2764C54.0401 24.8659 53.9687 24.4569 53.8876 24.0492C53.8065 23.6422 53.7156 23.2366 53.6149 22.8339C53.5142 22.4311 53.403 22.0311 53.2827 21.6339C53.1625 21.236 53.0317 20.8424 52.8919 20.4515C52.752 20.0599 52.6024 19.6725 52.4436 19.2893C52.2849 18.9054 52.1164 18.5257 51.9388 18.1502C51.7618 17.7754 51.5751 17.4041 51.3793 17.0383C51.1835 16.6719 50.9787 16.3104 50.7654 15.9545C50.5514 15.5978 50.3297 15.2475 50.099 14.9021C49.8682 14.5566 49.6291 14.2175 49.3815 13.8839C49.134 13.5504 48.8788 13.2231 48.6151 12.9022C48.3522 12.5812 48.0809 12.2665 47.8019 11.9589C47.5229 11.6512 47.2369 11.3505 46.9432 11.0568C46.6495 10.7631 46.3488 10.4771 46.0411 10.1981C45.7335 9.9191 45.4188 9.64779 45.0978 9.38486C44.7769 9.12124 44.4496 8.86601 44.1161 8.61847C43.7825 8.37092 43.4434 8.13178 43.0979 7.90102C42.7525 7.67026 42.4021 7.44859 42.0455 7.23462C41.6896 7.02134 41.3281 6.81645 40.9624 6.62066C40.5959 6.42486 40.2246 6.23886 39.8498 6.06125C39.4743 5.88363 39.0946 5.71511 38.7107 5.55638C38.3275 5.39764 37.9401 5.248 37.5492 5.10815C37.1576 4.96829 36.764 4.83823 36.3661 4.71726C35.9689 4.59698 35.5689 4.4858 35.1661 4.3851C34.7634 4.28441 34.3578 4.1935 33.9508 4.11239C33.5431 4.03127 33.1341 3.95995 32.7236 3.89911C32.3131 3.83828 31.9006 3.78793 31.4873 3.74667C31.074 3.70611 30.6601 3.67535 30.2454 3.65507C29.8307 3.63479 29.4154 3.625 29 3.625Z" fill="white"/>
</g>
<path d="M18.9955 25.375C19.2584 25.375 19.5213 25.3596 19.7829 25.3296C20.0444 25.2988 20.3031 25.2533 20.5597 25.1925C20.8157 25.1317 21.0681 25.0561 21.3157 24.9659C21.5625 24.8757 21.8044 24.7715 22.0394 24.6527C22.275 24.5345 22.5023 24.403 22.7219 24.2576C22.9421 24.1128 23.1526 23.9555 23.354 23.7856C23.5554 23.6163 23.747 23.4352 23.9267 23.2436C24.1071 23.0513 24.2757 22.8493 24.433 22.6381L25.0127 21.8766C25.084 21.7815 25.1455 21.6801 25.1973 21.5731C25.2483 21.4654 25.2889 21.3542 25.3183 21.2388C25.3483 21.1235 25.3658 21.0067 25.3728 20.8878C25.3791 20.7689 25.3735 20.6508 25.3567 20.5326C25.3399 20.4151 25.312 20.2997 25.2728 20.1878C25.2329 20.0753 25.1833 19.9683 25.1225 19.8655C25.0616 19.7634 24.9917 19.6676 24.912 19.5788C24.833 19.4907 24.7456 19.4103 24.6505 19.3389C24.5547 19.2676 24.454 19.2061 24.3463 19.155C24.2393 19.1033 24.1281 19.0627 24.0127 19.0334C23.8973 19.004 23.7799 18.9858 23.6617 18.9795C23.5428 18.9725 23.4239 18.9781 23.3065 18.9949C23.1883 19.0117 23.0736 19.0396 22.961 19.0795C22.8491 19.1187 22.7415 19.169 22.6394 19.2291C22.5366 19.29 22.4415 19.3599 22.3527 19.4396C22.2639 19.5193 22.1841 19.6061 22.1128 19.7018L21.5324 20.4627C21.4926 20.5179 21.4499 20.5717 21.4066 20.6242C21.3625 20.6759 21.3171 20.727 21.2695 20.7766C21.2226 20.8256 21.1737 20.8738 21.1241 20.92C21.0737 20.9661 21.022 21.0109 20.9688 21.0535C20.9157 21.0969 20.8611 21.1381 20.8059 21.1773C20.7499 21.2165 20.6933 21.2542 20.6353 21.2899C20.5765 21.3262 20.5178 21.3598 20.457 21.392C20.3968 21.4241 20.336 21.4542 20.2737 21.4822C20.2115 21.5102 20.1479 21.536 20.0842 21.5605C20.0206 21.5843 19.9556 21.606 19.8905 21.6262C19.8248 21.6458 19.7591 21.664 19.6927 21.6794C19.6262 21.6948 19.5591 21.7087 19.492 21.7199C19.4248 21.7311 19.357 21.7402 19.2892 21.7472C19.2213 21.7542 19.1535 21.7591 19.085 21.7619C19.0172 21.7647 18.9486 21.7647 18.8801 21.7633C18.8123 21.7612 18.7437 21.7577 18.6759 21.7514C18.6081 21.7451 18.5403 21.7367 18.4731 21.7262C18.4053 21.7157 18.3382 21.7032 18.2717 21.6885C18.2046 21.6738 18.1389 21.657 18.0732 21.6381C18.0074 21.6185 17.9431 21.5976 17.8788 21.5745C17.8144 21.5514 17.7508 21.5262 17.6886 21.499C17.6256 21.4717 17.5641 21.4423 17.5032 21.4109C17.4424 21.3801 17.383 21.3465 17.3242 21.3116C17.2662 21.2766 17.2082 21.2395 17.1522 21.2011C17.0963 21.1626 17.041 21.1221 16.9872 21.0794C16.934 21.0374 16.8816 20.9934 16.8306 20.9479C16.7802 20.9025 16.7306 20.8549 16.683 20.806C16.6355 20.7577 16.5893 20.7074 16.5446 20.6556C16.4998 20.6039 16.4571 20.5508 16.4159 20.4962C16.3746 20.4417 16.3355 20.3857 16.2977 20.3291C16.2607 20.2718 16.225 20.2137 16.1907 20.1543C16.1572 20.0948 16.125 20.0347 16.0949 19.9732C16.0369 19.876 15.9698 19.7851 15.8942 19.7012C15.8187 19.6165 15.7362 19.5396 15.646 19.4704C15.5558 19.4012 15.4607 19.341 15.3593 19.29C15.2579 19.2389 15.153 19.1977 15.0439 19.1662C14.9348 19.1347 14.8244 19.1138 14.7111 19.1033C14.5985 19.0928 14.4852 19.0928 14.3726 19.1033C14.2593 19.1138 14.1489 19.1347 14.0398 19.1662C13.9307 19.1977 13.8258 19.2389 13.7244 19.2907C13.623 19.3417 13.5279 19.4019 13.4377 19.4711C13.3475 19.5403 13.265 19.6165 13.1895 19.7012C13.1139 19.7858 13.0468 19.8774 12.9888 19.9746C12.93 20.0718 12.8811 20.1732 12.8419 20.2794C12.8028 20.3857 12.7734 20.4948 12.7545 20.6067C12.7363 20.7186 12.728 20.8312 12.7301 20.9444C12.7321 21.0577 12.7454 21.1703 12.7685 21.2815C12.7916 21.392 12.8252 21.5004 12.8692 21.6046C12.9958 21.8626 13.1391 22.1115 13.2979 22.3514C13.4573 22.5905 13.6307 22.8192 13.8188 23.0367C14.0069 23.2541 14.2083 23.4583 14.423 23.6499C14.637 23.8422 14.8628 24.0191 15.0999 24.1821C15.3369 24.345 15.5838 24.4918 15.8397 24.6226C16.0949 24.7541 16.3585 24.8687 16.6292 24.9659C16.8991 25.0638 17.1753 25.1435 17.4557 25.2058C17.7368 25.268 18.02 25.3128 18.3067 25.3386C18.5347 25.3715 18.7647 25.3834 18.9955 25.375Z" fill="white"/>
<path d="M44.3161 19.176C44.2098 19.1229 44.1 19.0802 43.9854 19.0487C43.8714 19.0173 43.7553 18.997 43.6364 18.9879C43.5183 18.9795 43.4001 18.9823 43.2826 18.9963C43.1651 19.011 43.0497 19.0368 42.9372 19.0739C42.8246 19.1103 42.7162 19.1585 42.6134 19.2166C42.5099 19.2746 42.4127 19.3424 42.3232 19.4193C42.233 19.497 42.1512 19.5816 42.0778 19.6753C42.0043 19.7683 41.9414 19.8676 41.8876 19.9732C41.8568 20.0347 41.8246 20.0941 41.7911 20.1536C41.7568 20.2123 41.7211 20.2704 41.6834 20.327C41.6456 20.3836 41.6065 20.4389 41.5652 20.4934C41.5239 20.5473 41.4806 20.6004 41.4365 20.6515C41.3918 20.7032 41.3456 20.7528 41.2981 20.8018C41.2498 20.85 41.2009 20.8969 41.1498 20.9423C41.0995 20.9878 41.047 21.0312 40.9939 21.0731C40.9401 21.1158 40.8855 21.1556 40.8289 21.1941C40.7729 21.2325 40.7156 21.2696 40.6576 21.3046C40.5988 21.3395 40.5394 21.3724 40.4785 21.4039C40.4184 21.4346 40.3569 21.464 40.2946 21.4913C40.2324 21.5185 40.1688 21.5437 40.1051 21.5668C40.0408 21.5899 39.9765 21.6108 39.9107 21.6297C39.8457 21.6493 39.7793 21.6661 39.7128 21.6808C39.6464 21.6962 39.58 21.7087 39.5129 21.7192C39.4457 21.7297 39.3779 21.7381 39.3101 21.7444C39.2422 21.7507 39.1744 21.7549 39.1066 21.757C39.0381 21.7591 38.9702 21.7591 38.9024 21.757C38.8346 21.7542 38.7667 21.75 38.6989 21.743C38.6311 21.7367 38.5632 21.7276 38.4961 21.7171C38.429 21.7059 38.3626 21.6927 38.2961 21.6773C38.2297 21.6626 38.164 21.6451 38.0982 21.6255C38.0332 21.6067 37.9689 21.585 37.9045 21.5612C37.8409 21.5381 37.778 21.5123 37.7157 21.485C37.6535 21.4577 37.592 21.4276 37.5318 21.3969C37.471 21.3654 37.4116 21.3318 37.3535 21.2969C37.2955 21.2612 37.2381 21.2242 37.1822 21.1857C37.1263 21.1465 37.0717 21.106 37.0186 21.064C36.9654 21.0214 36.913 20.978 36.8626 20.9319C36.8123 20.8864 36.7633 20.8396 36.7158 20.7906C36.6682 20.7417 36.6221 20.6913 36.578 20.6403C36.5333 20.5885 36.4906 20.5354 36.4501 20.4808L35.8697 19.7018C35.7983 19.6061 35.7186 19.5193 35.6298 19.4396C35.541 19.3599 35.4459 19.29 35.3431 19.2291C35.241 19.169 35.1333 19.1187 35.0215 19.0795C34.9089 19.0396 34.7942 19.0117 34.676 18.9949C34.5585 18.9781 34.4397 18.9725 34.3208 18.9795C34.2026 18.9858 34.0851 19.004 33.9698 19.0334C33.8544 19.0627 33.7432 19.1033 33.6362 19.155C33.5285 19.2061 33.4271 19.2676 33.332 19.3389C33.2369 19.4103 33.1495 19.4907 33.0705 19.5788C32.9908 19.6676 32.9209 19.7634 32.86 19.8655C32.7992 19.9683 32.7495 20.0753 32.7097 20.1878C32.6705 20.2997 32.6426 20.4151 32.6258 20.5326C32.609 20.6508 32.6034 20.7689 32.6097 20.8878C32.6167 21.0067 32.6342 21.1235 32.6642 21.2388C32.6936 21.3542 32.7342 21.4654 32.7852 21.5731C32.837 21.6801 32.8985 21.7815 32.9698 21.8766L33.5495 22.6563C33.8663 23.0779 34.2271 23.4583 34.632 23.7961C35.0375 24.1345 35.476 24.4212 35.9473 24.6569C36.4193 24.8932 36.9123 25.0715 37.4255 25.1932C37.9388 25.3142 38.4598 25.375 38.987 25.375C39.1989 25.3925 39.4101 25.3925 39.6219 25.375C39.9079 25.3484 40.1918 25.3044 40.4722 25.2421C40.7534 25.1799 41.0289 25.1002 41.2995 25.0023C41.5694 24.9051 41.833 24.7904 42.089 24.659C42.3449 24.5282 42.591 24.3806 42.8281 24.2184C43.0651 24.0555 43.291 23.8779 43.505 23.6863C43.7196 23.4947 43.921 23.2905 44.1091 23.073C44.2972 22.8555 44.4707 22.6269 44.6301 22.387C44.7888 22.1479 44.9322 21.8989 45.0594 21.6409C45.1161 21.536 45.1622 21.4262 45.1979 21.3116C45.2329 21.1976 45.2566 21.0808 45.2692 20.9612C45.2811 20.8424 45.2818 20.7235 45.2699 20.6039C45.2587 20.485 45.2357 20.3683 45.2014 20.2536C45.1664 20.1389 45.121 20.0291 45.065 19.9235C45.0084 19.8179 44.9427 19.7186 44.8664 19.6263C44.7902 19.534 44.7063 19.4494 44.6133 19.3739C44.521 19.2984 44.4217 19.2319 44.3161 19.176Z" fill="white"/>
<path d="M38.9512 34.6732C38.847 34.6145 38.7393 34.5669 38.626 34.5305C38.5135 34.4935 38.3981 34.4683 38.2799 34.4536C38.1617 34.4396 38.0436 34.4368 37.9254 34.4459C37.8065 34.455 37.6904 34.476 37.5757 34.5075C37.4618 34.5396 37.3513 34.5823 37.2457 34.6361C37.1394 34.69 37.0394 34.7536 36.9464 34.8263C36.8527 34.8998 36.7674 34.9816 36.6898 35.0718C36.6122 35.1613 36.5443 35.2585 36.4856 35.3613C36.3017 35.6941 36.0961 36.0137 35.8695 36.3193C35.643 36.6241 35.3968 36.9136 35.1318 37.1857C34.8668 37.4584 34.5843 37.7122 34.285 37.9472C33.9864 38.1821 33.6724 38.3961 33.3452 38.5898C33.0172 38.7828 32.6788 38.9534 32.3277 39.1009C31.9774 39.2492 31.6187 39.373 31.2523 39.473C30.8852 39.5737 30.5131 39.6485 30.1362 39.6995C29.7593 39.7499 29.3803 39.775 28.9999 39.775C28.6202 39.775 28.2412 39.7499 27.8643 39.6995C27.4874 39.6485 27.1154 39.5737 26.7483 39.473C26.3812 39.373 26.0225 39.2492 25.6721 39.1009C25.3218 38.9534 24.9833 38.7828 24.6554 38.5898C24.3274 38.3961 24.0142 38.1821 23.7156 37.9472C23.4163 37.7122 23.1338 37.4584 22.8688 37.1857C22.6037 36.9136 22.3576 36.6241 22.131 36.3193C21.9045 36.0137 21.6989 35.6941 21.5143 35.3613C21.4548 35.2578 21.3863 35.1613 21.3073 35.0711C21.229 34.9816 21.1423 34.8998 21.0479 34.827C20.9535 34.7543 20.8521 34.6914 20.7451 34.6382C20.6381 34.5851 20.5269 34.5431 20.4122 34.5124C20.2969 34.4809 20.1794 34.4613 20.0605 34.4529C19.9409 34.4452 19.8221 34.4487 19.7039 34.4641C19.5857 34.4795 19.4696 34.5061 19.3563 34.5445C19.2431 34.583 19.1354 34.6312 19.0312 34.6907C18.9277 34.7508 18.8312 34.8193 18.741 34.8984C18.6515 34.9767 18.5697 35.0634 18.4969 35.1578C18.4242 35.2522 18.3613 35.3529 18.3081 35.4606C18.255 35.5676 18.213 35.678 18.1816 35.7934C18.1508 35.9088 18.1312 36.0263 18.1228 36.1451C18.1151 36.2647 18.1186 36.3836 18.134 36.5018C18.1494 36.6199 18.176 36.736 18.2144 36.8493C18.2522 36.9619 18.3011 37.0703 18.3606 37.1738C18.6235 37.6458 18.9165 38.0982 19.2396 38.5303C19.5626 38.9632 19.913 39.373 20.2906 39.759C20.6675 40.145 21.0688 40.5044 21.494 40.8372C21.9192 41.1701 22.3646 41.4729 22.8303 41.7463C23.296 42.0204 23.7778 42.2616 24.275 42.4707C24.7729 42.6805 25.2819 42.856 25.8029 42.998C26.3245 43.1392 26.8525 43.2462 27.3874 43.3175C27.9231 43.3889 28.4601 43.4245 28.9999 43.4245C29.5405 43.4245 30.0775 43.3889 30.6131 43.3175C31.1481 43.2462 31.676 43.1392 32.197 42.998C32.7179 42.856 33.2277 42.6805 33.7256 42.4707C34.2228 42.2616 34.7046 42.0204 35.1703 41.7463C35.636 41.4729 36.0807 41.1701 36.5066 40.8372C36.9317 40.5044 37.3331 40.145 37.71 39.759C38.0876 39.373 38.4379 38.9632 38.761 38.5303C39.0841 38.0982 39.3771 37.6458 39.6393 37.1738C39.7008 37.0696 39.7505 36.9605 39.7896 36.8458C39.8288 36.7318 39.8561 36.6144 39.8721 36.4948C39.8875 36.3745 39.891 36.2549 39.8826 36.134C39.8742 36.0137 39.8547 35.8948 39.8225 35.778C39.7903 35.662 39.747 35.5494 39.6924 35.4417C39.6379 35.334 39.5729 35.2326 39.498 35.1375C39.4232 35.0424 39.34 34.9564 39.2477 34.8781C39.1554 34.7998 39.0568 34.7312 38.9512 34.6732Z" fill="white"/>
</svg>
