<svg width="32" height="62" viewBox="0 0 32 62" fill="none" xmlns="http://www.w3.org/2000/svg">
<g clip-path="url(#clip0_15_106)">
<path d="M18.3948 13.4813C18.3704 13.6993 18.2806 13.8517 18.0534 13.9108C17.8788 13.9568 17.7543 13.899 17.6362 13.7821C17.4847 13.6336 17.4911 13.4655 17.5617 13.2803C17.6387 13.0793 17.8082 13.0294 17.9789 13.0386C18.1638 13.0478 18.337 13.1266 18.3704 13.3565C18.3756 13.3906 18.355 13.4314 18.3948 13.4563" stroke="white" stroke-width="2" stroke-linecap="round" stroke-linejoin="round"/>
<path d="M17.5395 25.9952C17.3033 25.9926 17.0915 26.0596 16.8771 26.1646C16.5729 26.3144 16.3444 26.5232 16.2199 26.8463C16.1891 26.9278 16.1711 27.0158 16.0967 27.0709" stroke="white" stroke-width="2" stroke-linecap="round" stroke-linejoin="round"/>
<path d="M28.7113 13.2568C28.6882 13.8558 28.6163 14.4495 28.488 15.0327C28.2762 15.9954 27.9694 16.9267 27.5355 17.8093C27.5175 17.8461 27.5188 17.8763 27.5137 17.9105" stroke="white" stroke-width="2" stroke-linecap="round" stroke-linejoin="round"/>
<path d="M7.24733 9.53966C6.88406 9.56856 6.56828 9.92188 6.64017 10.2516C6.73644 10.6968 7.04837 10.8847 7.41806 10.8242C7.74924 10.7704 8.01495 10.3277 7.90071 10.0046C7.81984 9.77478 7.68121 9.56199 7.39367 9.5528C7.32564 9.55017 7.25247 9.56199 7.27172 9.45166" stroke="white" stroke-width="2" stroke-linecap="round" stroke-linejoin="round"/>
<path d="M21.7926 44.0381C21.4987 44.1484 21.301 44.4413 21.3524 44.6883C21.4101 44.9693 21.6887 45.1782 21.9634 45.1519C22.3215 45.1178 22.4845 44.8275 22.4768 44.5635C22.4678 44.2614 22.2355 44.0447 21.9146 44.0381C21.8825 44.0381 21.8491 44.0381 21.817 44.0381" stroke="white" stroke-width="2" stroke-linecap="round" stroke-linejoin="round"/>
<path d="M23.3574 36.5054C23.9453 37.1345 24.5178 37.7781 25.0197 38.4822" stroke="white" stroke-width="2" stroke-linecap="round" stroke-linejoin="round"/>
<path d="M14.0674 34.8782C13.8992 34.9807 13.7542 35.0884 13.7708 35.3287C13.7888 35.5901 13.9377 35.7648 14.1893 35.7793C14.3973 35.7911 14.654 35.5284 14.654 35.3038C14.654 35.1002 14.4537 34.894 14.2381 34.8782C14.1893 34.8743 14.1405 34.8782 14.0918 34.8782" stroke="white" stroke-width="2" stroke-linecap="round" stroke-linejoin="round"/>
<path d="M16.0967 24.9692C16.2944 25.4684 16.6705 25.7836 17.1236 26.02" stroke="white" stroke-width="2" stroke-linecap="round" stroke-linejoin="round"/>
<path d="M16.0723 24.5684C16.089 25.1082 15.7629 25.6205 15.2662 25.8451C15.1738 25.8871 15.0788 25.9265 15.021 26.0198" stroke="white" stroke-width="2" stroke-linecap="round" stroke-linejoin="round"/>
<path d="M14.6055 26.0198C15.0458 25.966 15.3988 26.1709 15.6735 26.4769C15.9263 26.7593 16.1433 27.0916 16.0727 27.5211" stroke="white" stroke-width="2" stroke-linecap="round" stroke-linejoin="round"/>
<path d="M8.10241 43.5879C7.97148 43.6969 7.80717 43.6417 7.65955 43.6772C6.95098 43.8453 6.52737 44.3261 6.24754 44.9657C5.94203 45.6632 5.85089 46.4066 5.85218 47.1671C5.85603 50.4626 5.85474 53.7568 5.84961 57.0523C5.84961 57.2638 5.90481 57.3268 6.12046 57.3623C6.9574 57.4989 7.80075 57.5882 8.64025 57.6972C9.24742 57.7761 9.86357 57.7852 10.472 57.8575C11.2846 57.9547 12.1035 57.9639 12.9174 58.0479C13.2819 58.086 13.6529 58.0873 14.0174 58.0913C15.2972 58.1071 16.577 58.2108 17.8555 58.1438C18.4191 58.1149 18.9813 58.1333 19.5423 58.0979C20.1289 58.0598 20.7168 58.0414 21.3021 57.9928C21.9388 57.9402 22.5755 57.893 23.2109 57.8128C23.682 57.7537 24.1557 57.7104 24.6268 57.6486C25.3276 57.558 26.0272 57.4516 26.7294 57.3071L26.7294 57.0773C26.7294 54.4241 26.7538 51.7722 26.7166 49.1189C26.7024 48.0668 26.1415 47.0003 24.9939 46.7153C24.4188 46.5721 23.8656 46.6811 23.3059 46.8125C22.6949 46.957 22.1327 47.2288 21.5743 47.4994C20.7142 47.9158 19.8401 48.2717 18.9069 48.4701C18.4293 48.5712 17.948 48.6316 17.464 48.5883C16.7298 48.5239 16.0379 48.2928 15.4115 47.8908C14.6169 47.3799 13.9494 46.7048 13.2306 46.0953C12.0637 45.1076 10.8276 44.2328 9.34883 43.7836C8.94576 43.6614 8.53885 43.6128 8.12551 43.5879" stroke="white" stroke-width="2" stroke-linecap="round" stroke-linejoin="round"/>
<path d="M29.8846 4.82324C29.8923 4.92307 29.9077 5.02289 29.9077 5.12403C29.909 7.85212 29.9102 10.5802 29.9077 13.307C29.9077 14.1699 29.7523 15.0145 29.511 15.8328C28.8641 18.0224 27.7434 19.9492 26.3417 21.7185C25.6126 22.6379 24.8296 23.5061 23.9888 24.3152C22.6166 25.6366 21.1262 26.8016 19.496 27.7775C18.8349 28.1742 18.2522 28.676 17.8298 29.3485C17.3742 30.0748 17.4178 30.9233 17.9518 31.6024C18.4242 32.204 19.0301 32.6335 19.6911 32.9723C21.2174 33.7565 22.6512 34.6799 23.9143 35.858C25.1595 37.0205 26.2403 38.334 27.117 39.8103C27.9026 41.133 28.5226 42.5344 28.9796 44.0121C29.2761 44.9723 29.4982 45.9508 29.6535 46.9425C29.7305 47.4285 29.7755 47.9236 29.8165 48.4175C29.9141 49.5931 29.9064 50.7699 29.9064 51.9468C29.9064 53.498 29.9064 55.0506 29.9064 56.6018L29.9064 58.5037" stroke="white" stroke-width="2" stroke-linecap="round" stroke-linejoin="round"/>
<path d="M31.7678 58.0779C31.3904 58.1856 31.0323 58.3603 30.6434 58.4286C30.2031 58.5047 29.7641 58.5862 29.3225 58.6518C28.8424 58.7228 28.3623 58.7858 27.8797 58.8397C27.465 58.887 27.0491 58.9211 26.6332 58.9526C26.0222 58.9986 25.4099 59.0275 24.8002 59.0827C24.4575 59.1129 24.1147 59.1155 23.772 59.147C23.2611 59.193 22.7451 59.1812 22.2329 59.2061C20.8722 59.2705 19.5116 59.2902 18.1509 59.3125C16.7902 59.3349 15.4283 59.3283 14.0676 59.3217C13.6286 59.3204 13.1871 59.3165 12.7481 59.3046C11.5658 59.2718 10.3836 59.2521 9.2039 59.1983C8.5685 59.1694 7.93181 59.1405 7.29769 59.0984C6.61351 59.0525 5.92804 59.0039 5.24386 58.9474C4.74709 58.9067 4.24518 58.8712 3.75355 58.7937C3.2311 58.711 2.70481 58.6532 2.18365 58.552C1.65992 58.4509 1.13234 58.376 0.624018 58.2026C0.50849 58.1632 0.392962 58.1251 0.282568 58.0765C0.118261 58.0056 0.0848866 57.8585 0.210684 57.7285C0.383976 57.5498 0.618883 57.4947 0.844805 57.4277C1.27739 57.3003 1.71512 57.1952 2.16439 57.1519" stroke="white" stroke-width="2" stroke-linecap="round" stroke-linejoin="round"/>
<path d="M23.1377 10.2281C23.1543 10.2452 23.1672 10.2715 23.1864 10.2767C23.6601 10.4107 23.9014 10.7746 24.0965 11.2014C24.1569 11.3328 24.1081 11.4589 24.1517 11.5797L24.1389 11.229C24.2275 11.145 24.2942 11.0491 24.3366 10.9295C24.4226 10.6852 24.5933 10.5145 24.8231 10.4028C24.9489 10.3424 25.0952 10.3227 25.1902 10.2032L25.6061 10.1782C25.4315 10.194 25.2287 10.1782 25.1774 10.1533C24.7563 9.95889 24.3777 9.71983 24.2339 9.22728C24.2249 9.19707 24.1877 9.17605 24.162 9.1511L24.1376 8.75049C24.1094 9.33104 23.8847 9.75398 23.3379 10.018C23.1133 10.1257 22.9092 10.2006 22.6704 10.2019" stroke="white" stroke-width="2" stroke-linecap="round" stroke-linejoin="round"/>
<path d="M13.6787 40.9868C13.621 41.5056 13.8636 41.8393 14.2846 42.0967C14.4566 42.2018 14.6132 42.2556 14.8032 42.2386L14.4605 42.2635C14.422 42.3331 14.3552 42.3647 14.2885 42.387C13.9188 42.5131 13.8354 42.8835 13.6608 43.1685C13.6133 43.246 13.6531 43.3813 13.6531 43.489L13.6775 43.1015C13.5927 43.0818 13.5491 42.9925 13.5375 42.9373C13.4785 42.6602 13.2705 42.5275 13.0652 42.3896C13.0061 42.3502 12.933 42.3331 12.8944 42.2635L12.5029 42.2386C12.9214 42.2911 13.2025 42.0455 13.4515 41.7591C13.5311 41.6685 13.5337 41.5135 13.6518 41.4387" stroke="white" stroke-width="2" stroke-linecap="round" stroke-linejoin="round"/>
<path d="M18.003 8.05164C17.9106 7.85987 17.7078 7.8822 17.5615 7.86118C16.9132 7.77318 16.2675 7.72327 15.6065 7.79026C14.0815 7.94656 12.7516 8.53237 11.5989 9.55294C10.6927 10.3555 10.0213 11.3248 9.58745 12.4781C9.22803 13.4343 9.06629 14.4181 9.10865 15.4334C9.17027 16.9373 9.6542 18.2994 10.5232 19.5117C11.1753 20.4206 11.9969 21.1431 12.9699 21.6579C13.8902 22.1439 14.8735 22.4276 15.9235 22.4736C16.8824 22.5156 17.8079 22.3882 18.7103 22.0651C19.3791 21.8261 19.9914 21.4767 20.5639 21.059C20.7102 20.9526 20.7783 20.7424 20.9837 20.7017L20.6897 20.8147C20.6127 20.7779 20.5318 20.7608 20.4458 20.7635C20.0107 20.7779 19.5806 20.7398 19.1493 20.6676C18.2328 20.5152 17.3972 20.1671 16.6334 19.6365C15.9646 19.1728 15.4024 18.5936 14.9467 17.9106C14.3267 16.982 13.9647 15.9483 13.88 14.8318C13.835 14.242 13.853 13.647 13.9621 13.0547C14.1007 12.2981 14.3511 11.5849 14.7336 10.9334C15.4178 9.76704 16.3651 8.88044 17.5897 8.33272C17.84 8.22108 18.0441 7.95181 18.3689 8.05164" stroke="white" stroke-width="2" stroke-linecap="round" stroke-linejoin="round"/>
<path d="M0.181004 58.0779C0.132225 58.1724 0.130941 58.2736 0.130941 58.3786C0.133509 58.996 0.139927 59.6133 0.12709 60.2306C0.123239 60.4408 0.200258 60.5656 0.374834 60.6575C0.806139 60.8848 1.27852 60.9636 1.74577 61.0529C2.489 61.196 3.23865 61.2946 3.99343 61.3615C4.53128 61.4101 5.06784 61.4745 5.60697 61.5126C6.07165 61.5454 6.53633 61.5809 7.00101 61.6137C7.62871 61.6584 8.25642 61.6742 8.88284 61.7188C9.30002 61.749 9.71849 61.7096 10.1293 61.7635C10.6851 61.8357 11.2383 61.7832 11.7929 61.8068C14.4731 61.9211 17.1546 61.8423 19.8362 61.8423C20.4202 61.8423 21.0133 61.8554 21.5948 61.795C21.9799 61.7556 22.3624 61.7819 22.7449 61.7543C23.4201 61.7044 24.0966 61.6755 24.7744 61.6479C25.2224 61.6295 25.6716 61.5901 26.1183 61.5467C26.7383 61.4876 27.3596 61.4404 27.9783 61.3668C28.4417 61.3116 28.909 61.2722 29.3698 61.1987C30.1246 61.0791 30.8897 60.9977 31.5982 60.6601C31.7895 60.5695 31.8434 60.4474 31.8421 60.2543C31.837 59.612 31.8383 58.9697 31.8421 58.3274C31.8421 58.1856 31.7985 58.0542 31.8498 57.8966C31.8909 57.7718 31.742 57.6641 31.5982 57.5971C31.1605 57.3883 30.692 57.3016 30.2273 57.2018C30.1464 57.1847 30.0643 57.1689 29.9834 57.1519" stroke="white" stroke-width="2" stroke-linecap="round" stroke-linejoin="round"/>
<path d="M31.7676 1.79572C31.1322 2.10439 30.4455 2.23048 29.7613 2.33687C29.1785 2.42619 28.5906 2.49449 28.004 2.55754C27.3853 2.62452 26.764 2.67838 26.144 2.73748C25.6896 2.78083 25.2313 2.81892 24.7756 2.83862C24.1235 2.86752 23.4714 2.8951 22.8206 2.94501C22.4304 2.97391 22.0402 2.94895 21.6461 2.98442C21.0389 3.03958 20.4228 3.03433 19.8131 3.03433C17.075 3.0317 14.3357 3.11051 11.599 2.99624C11.1022 2.97522 10.6055 3.01725 10.1061 2.95683C9.66327 2.90298 9.21015 2.9634 8.76215 2.90035C8.47205 2.85964 8.17553 2.87408 7.88157 2.85964C7.10625 2.81892 6.33221 2.77032 5.55946 2.69808C5.09606 2.65473 4.62882 2.64685 4.1667 2.59169C3.44016 2.50631 2.71362 2.41043 1.99093 2.2909C1.41585 2.19633 0.843346 2.07286 0.302932 1.83381C0.120654 1.75369 0.0795774 1.61446 0.205375 1.46998C0.284961 1.38066 0.39022 1.33732 0.498046 1.29266C0.916514 1.11928 1.35424 1.0234 1.79453 0.945901C2.56343 0.810613 3.33875 0.717357 4.11536 0.631981C4.74306 0.56368 5.37205 0.512454 5.99975 0.452034C6.45416 0.40869 6.91242 0.369286 7.36812 0.350897C8.06128 0.323314 8.75445 0.293104 9.44634 0.244505C9.84555 0.215609 10.2435 0.237938 10.6453 0.205101C11.3179 0.148622 11.9982 0.157816 12.6734 0.156502C15.1509 0.151249 17.6283 0.0842613 20.1057 0.19328C20.6025 0.215609 21.0993 0.201161 21.5973 0.228744C22.3945 0.273402 23.1942 0.28785 23.9926 0.336449C24.5228 0.367972 25.0516 0.402122 25.5818 0.434959C26.203 0.474364 26.8218 0.521649 27.4392 0.591263C27.8294 0.634608 28.2235 0.643802 28.6124 0.697654C29.3159 0.794852 30.0219 0.882855 30.7138 1.04835C31.0488 1.12847 31.3928 1.19415 31.6945 1.39117C31.8665 1.50282 31.9178 1.61971 31.7908 1.79441L31.8151 1.81936C31.8639 1.91393 31.8652 2.01507 31.8652 2.12015C31.8626 2.70465 31.8524 3.28783 31.8703 3.87233C31.8768 4.09036 31.7831 4.22302 31.6187 4.29395C31.1489 4.49491 30.6509 4.59211 30.1554 4.70507C29.7741 4.79176 29.3852 4.81015 29.0027 4.88502C28.6933 4.94675 28.3698 4.96514 28.0515 4.99535C27.5547 5.04395 27.0554 5.0781 26.5599 5.14508C26.3417 5.17398 26.1183 5.17661 25.9001 5.18449C25.5253 5.19894 25.1517 5.23965 24.7769 5.25542C24.0517 5.28825 23.3264 5.32897 22.6011 5.36181C22.3085 5.37494 22.0132 5.37626 21.7206 5.39858C20.8823 5.46294 20.0403 5.41435 19.2033 5.45375C17.2073 5.54832 15.2099 5.49447 13.2138 5.48265C12.4976 5.47871 11.7774 5.49841 11.0637 5.43668C10.5888 5.39596 10.1164 5.42879 9.6453 5.39464C8.96112 5.34473 8.27694 5.31584 7.59147 5.28957C7.1024 5.27118 6.61462 5.2147 6.12426 5.19106C5.54406 5.16479 4.96385 5.12013 4.38877 5.04001C3.77776 4.95463 3.16418 4.89421 2.55316 4.80883C1.94985 4.72346 1.35937 4.59211 0.770179 4.44369C0.58405 4.39772 0.421027 4.29264 0.255437 4.19807C0.150178 4.13765 0.13349 4.05359 0.13349 3.94588C0.136058 3.31147 0.136058 2.67838 0.13349 2.04397C0.13349 1.96122 0.159163 1.8916 0.184836 1.81936" stroke="white" stroke-width="2" stroke-linecap="round" stroke-linejoin="round"/>
<path d="M2.25941 4.84814C2.20806 4.92695 2.2363 5.01496 2.2363 5.09902C2.23374 7.78508 2.23502 10.4711 2.23502 13.1572C2.23502 14.1081 2.40574 15.0276 2.67146 15.9365C2.92819 16.8126 3.26579 17.6545 3.67912 18.4623C4.37871 19.8257 5.23618 21.0788 6.22074 22.2412C7.32724 23.5481 8.54285 24.7381 9.85859 25.8257C10.8303 26.6295 11.8957 27.2849 12.9381 27.9798C13.5388 28.3804 14.0728 28.869 14.413 29.5467C14.834 30.3847 14.5965 31.1242 14.1152 31.6995C13.6222 32.2893 13.001 32.7096 12.3296 33.0485C10.408 34.0218 8.69176 35.2827 7.22455 36.8838C5.81254 38.4245 4.69448 40.1688 3.87038 42.1101C3.30815 43.4328 2.89225 44.7988 2.62525 46.2148C2.43527 47.2235 2.31846 48.2401 2.28123 49.2686C2.19009 51.7878 2.25941 54.3071 2.2363 56.8263C2.23245 57.3097 2.2363 57.7944 2.2363 58.2777C2.2363 58.3618 2.25171 58.4472 2.21191 58.5286" stroke="white" stroke-width="2" stroke-linecap="round" stroke-linejoin="round"/>
<path d="M21.4755 17.5597C21.4922 17.5768 21.5051 17.603 21.5243 17.6083C21.998 17.7423 22.2393 18.1061 22.4344 18.533C22.4948 18.6643 22.446 18.7904 22.4896 18.9113L22.4768 18.5606C22.5654 18.4765 22.6321 18.3806 22.6745 18.2611C22.7605 18.0168 22.9312 17.846 23.161 17.7344C23.2868 17.674 23.4331 17.6543 23.5281 17.5347L23.944 17.5098C23.7694 17.5255 23.5666 17.5098 23.5153 17.4848C23.0942 17.2904 22.7155 17.0514 22.5718 16.5588C22.5628 16.5286 22.5256 16.5076 22.4999 16.4826L22.4755 16.082C22.4473 16.6626 22.2226 17.0855 21.6758 17.3495C21.4512 17.4572 21.2471 17.5321 21.0083 17.5334" stroke="white" stroke-width="2" stroke-linecap="round" stroke-linejoin="round"/>
<path d="M18.0029 38.9708C18.0196 38.9879 18.0324 39.0142 18.0517 39.0194C18.5253 39.1534 18.7667 39.5172 18.9618 39.9441C19.0221 40.0755 18.9733 40.2015 19.017 40.3224L19.0041 39.9717C19.0927 39.8876 19.1595 39.7917 19.2018 39.6722C19.2878 39.4279 19.4585 39.2572 19.6883 39.1455C19.8141 39.0851 19.9605 39.0654 20.0554 38.9459L20.4713 38.9209C20.2968 38.9367 20.094 38.9209 20.0426 38.896C19.6216 38.7016 19.2429 38.4625 19.0991 37.97C19.0901 37.9397 19.0529 37.9187 19.0272 37.8938L19.0029 37.4932C18.9746 38.0737 18.75 38.4967 18.2031 38.7607C17.9785 38.8684 17.7744 38.9432 17.5356 38.9446" stroke="white" stroke-width="2" stroke-linecap="round" stroke-linejoin="round"/>
<path d="M9.54373 21.6512C9.51934 21.8692 9.42949 22.0216 9.20228 22.0807C9.02771 22.1267 8.90319 22.0689 8.7851 21.952C8.63363 21.8036 8.64005 21.6354 8.71065 21.4502C8.78767 21.2493 8.95711 21.1994 9.12783 21.2086C9.31268 21.2177 9.48597 21.2966 9.51934 21.5264C9.52448 21.5606 9.50394 21.6013 9.54373 21.6262" stroke="white" stroke-width="2" stroke-linecap="round" stroke-linejoin="round"/>
</g>
<defs>
<clipPath id="clip0_15_106">
<rect width="32" height="62" fill="white"/>
</clipPath>
</defs>
</svg>
