<svg width="1440" height="677" viewBox="0 0 1440 677" fill="none" xmlns="http://www.w3.org/2000/svg">
<path d="M232.68 213.535C118.861 185.197 79.2677 195.894 -5 221.869V674.443C109.922 680.184 169.737 671.745 261.971 620.268C366.446 559.994 423.377 515.517 549.028 592.763C549.028 592.763 736.493 670.277 904.71 542.755C1072.93 415.233 1153.09 411.809 1442 475.244V1C1247 15.1408 1262.07 49.3412 1186.75 94.3485C1111.42 139.356 1112.26 162.693 904.71 108.517C697.159 54.342 629.816 150.578 512.204 213.535C394.592 276.491 346.498 241.872 232.68 213.535Z" fill="#273A96" stroke="black"/>
</svg>
